<svg width="77" height="58" viewBox="0 0 77 58" fill="none" xmlns="http://www.w3.org/2000/svg">
<path d="M0.414879 43.125L0.510719 43.769L0.610382 43.746C1.29153 46.9313 2.86067 49.8587 5.13624 52.1894C7.4118 54.5202 10.3008 56.159 13.4689 56.9162C16.6371 57.6734 19.9548 57.5182 23.0384 56.4684C26.122 55.4186 28.8453 53.5171 30.8933 50.9841C32.9412 48.451 34.2301 45.3899 34.6108 42.1548C34.9915 38.9198 34.4484 35.6431 33.0445 32.7038C31.6405 29.7645 29.433 27.2828 26.6773 25.5459C23.9217 23.8089 20.7306 22.8877 17.4732 22.8888C16.6184 22.8888 15.798 23.0191 14.9815 23.138C15.246 22.2486 15.5182 21.344 15.9552 20.5313C16.3922 19.3506 17.0745 18.3271 17.753 17.296C18.3204 16.1805 19.3209 15.4253 20.0569 14.4708C20.8274 13.5431 21.8777 12.926 22.7095 12.1555C23.526 11.3505 24.5955 10.948 25.4465 10.3806C26.3359 9.87079 27.1102 9.30729 27.9382 9.03896L30.0044 8.18796L31.8214 7.43279L29.966 -4.57764e-05L27.6775 0.55196C26.9454 0.735958 26.0522 0.950623 25.0364 1.20746C23.9975 1.39912 22.8897 1.92429 21.6554 2.40346C20.4402 2.95163 19.0257 3.31579 17.7147 4.19362C16.396 5.02929 14.8742 5.72696 13.5325 6.84629C12.233 8.00013 10.6652 9.00063 9.50755 10.465C8.24255 11.8373 6.99288 13.2786 6.02305 14.9193C4.89988 16.4833 4.13705 18.2006 3.33205 19.8988C2.60371 21.597 2.01721 23.3335 1.53805 25.0201C0.629547 28.4011 0.223213 31.6135 0.0660477 34.362C-0.0642853 37.1143 0.0123749 39.4028 0.173378 41.0588C0.227249 41.7504 0.307808 42.4396 0.414879 43.125ZM42.5815 43.125L42.6774 43.769L42.777 43.746C43.4582 46.9313 45.0273 49.8587 47.3029 52.1894C49.5785 54.5202 52.4675 56.159 55.6356 56.9162C58.8037 57.6734 62.1215 57.5182 65.2051 56.4684C68.2887 55.4186 71.012 53.5171 73.0599 50.9841C75.1079 48.451 76.3968 45.3899 76.7775 42.1548C77.1582 38.9198 76.6151 35.6431 75.2111 32.7038C73.8071 29.7645 71.5996 27.2828 68.844 25.5459C66.0884 23.8089 62.8973 22.8877 59.6399 22.8888C58.785 22.8888 57.9647 23.0191 57.1482 23.138C57.4127 22.2486 57.6849 21.344 58.1219 20.5313C58.5589 19.3506 59.2412 18.3271 59.9197 17.296C60.487 16.1805 61.4875 15.4253 62.2235 14.4708C62.994 13.5431 64.0444 12.926 64.8762 12.1555C65.6927 11.3505 66.7622 10.948 67.6132 10.3806C68.5025 9.87079 69.2769 9.30729 70.1049 9.03896L72.171 8.18796C73.3249 7.71646 73.9842 7.44046 73.9842 7.44046L72.1289 0.00762558L69.8404 0.559624C69.1082 0.743622 68.215 0.958294 67.1992 1.21513C66.1604 1.4068 65.0525 1.93196 63.8182 2.41113C62.603 2.9593 61.1885 3.32346 59.8775 4.20129C58.5589 5.03696 57.037 5.73462 55.6954 6.85396C54.3959 8.00779 52.828 9.00829 51.6704 10.4726C50.4054 11.845 49.1557 13.2863 48.1859 14.927C47.0627 16.491 46.2999 18.2083 45.4949 19.9065C44.7665 21.6046 44.18 23.3411 43.7009 25.0278C42.7924 28.4088 42.386 31.6211 42.2289 34.3696C42.0985 37.122 42.1752 39.4105 42.3362 41.0665C42.3935 41.7553 42.4753 42.4419 42.5815 43.125Z" fill="#303133"/>
</svg>
